<svg xmlns="http://www.w3.org/2000/svg" viewBox="0 0 512 512" role="img" aria-labelledby="title desc">
  <title id="title">liyb site icon</title>
  <desc id="desc">A dark rounded-square developer mark with a purple L-shaped monogram and command prompt accent.</desc>
  <defs>
    <linearGradient id="bg" x1="72" y1="64" x2="440" y2="448" gradientUnits="userSpaceOnUse">
      <stop offset="0" stop-color="#151827"/>
      <stop offset="0.52" stop-color="#080A12"/>
      <stop offset="1" stop-color="#05060B"/>
    </linearGradient>
    <linearGradient id="mark" x1="128" y1="120" x2="372" y2="372" gradientUnits="userSpaceOnUse">
      <stop offset="0" stop-color="#C084FC"/>
      <stop offset="0.48" stop-color="#A855F7"/>
      <stop offset="1" stop-color="#7C3AED"/>
    </linearGradient>
    <linearGradient id="accent" x1="312" y1="148" x2="406" y2="298" gradientUnits="userSpaceOnUse">
      <stop offset="0" stop-color="#F8FAFC"/>
      <stop offset="1" stop-color="#C7D2FE"/>
    </linearGradient>
    <clipPath id="clip">
      <rect x="24" y="24" width="464" height="464" rx="112"/>
    </clipPath>
  </defs>

  <rect x="24" y="24" width="464" height="464" rx="112" fill="url(#bg)"/>
  <g clip-path="url(#clip)" opacity=".46">
    <path d="M74 154H438M74 256H438M74 358H438M154 74V438M256 74V438M358 74V438" fill="none" stroke="#FFFFFF" stroke-width="2"/>
    <circle cx="394" cy="116" r="110" fill="#A855F7" opacity=".16"/>
    <circle cx="134" cy="384" r="124" fill="#22D3EE" opacity=".09"/>
  </g>
  <rect x="35" y="35" width="442" height="442" rx="101" fill="none" stroke="#FFFFFF" stroke-opacity=".11" stroke-width="2"/>

  <path opacity=".42" d="M152 105C126 105 105 126 105 152V333C105 359 126 380 152 380H364C390 380 411 359 411 333C411 307 390 286 364 286H247C221 286 199 264 199 238V152C199 126 178 105 152 105Z" fill="#A855F7"/>
  <path d="M159 116C136.4 116 118 134.4 118 157V326C118 349.2 136.8 368 160 368H356C378.6 368 397 349.6 397 327C397 304.4 378.6 286 356 286H242C218.8 286 200 267.2 200 244V157C200 134.4 181.6 116 159 116Z" fill="#B968FC"/>
  <path d="M306 155L386 226L306 297L279 269L326 226L279 183Z" fill="#F8FAFC"/>
  <rect x="346" y="333" width="78" height="26" rx="13" fill="#22D3EE"/>
</svg>
